<svg width="439" height="348" viewBox="0 0 439 348" fill="none" xmlns="http://www.w3.org/2000/svg">
<path d="M386.9 127C386.9 116.2 392.6 56.7 427 8C399.9 12.8 340.1 28.7 291.5 56.3C254.3 47 176.1 47.6 149.5 56.7C100.8 28.8 39.2 12.8 12 8C46.4 56.7 52.1 116.2 52.1 127C52.1 137.8 64.9 170.6 52.1 219C46.4 240.6 105.6 280.3 120.9 289.3C148.4 328.3 199.1 341.1 222 342.9C244.9 341.1 290.6 328.2 318.1 289.3C333.4 280.3 392.6 240.6 386.9 219C374.1 170.6 386.9 137.9 386.9 127Z" stroke="currentColor" stroke-width="10"/>
<path d="M177 268C155.8 144.2 138.2 192.6 83.2 128C73.7 230.3 122.3 248.3 177 268Z" stroke="currentColor" stroke-width="10"/>
<path d="M258 268C279.2 144.2 296.8 192.6 351.8 128C361.3 230.3 312.7 248.3 258 268Z" stroke="currentColor" stroke-width="10"/>
</svg>
